<svg width="501" height="373" viewBox="0 0 501 373" fill="none" xmlns="http://www.w3.org/2000/svg">
<path d="M83.8889 67C94.2562 62.2876 105.092 68.3275 114.296 73.9531C121.064 62.9456 136.026 51.4329 143.889 45C155.903 35.17 160.62 29.486 176.556 30C188.943 30.3996 202.844 36.4542 214.1 41.3571L214.556 41.5556C223.084 45.2694 236.392 49.6471 242.111 57C244.357 59.8876 246.475 61.8023 248.111 65.2222C248.697 66.4481 253.058 77.1181 254.111 76.6667C257.946 75.0234 263.833 68.8335 267 66C277.459 56.6421 283.6 52 298 52C315.261 52 328.855 59.8552 341 72C353.128 84.128 343.257 102.676 337.222 116.556C334.619 122.542 345.297 119.509 349.222 120.222C359.361 122.066 369.685 124.987 379.111 129.111C391.05 134.334 400.539 141.966 406.556 154C413.152 167.193 406.039 189.465 397.556 200.444C381.884 220.725 358.778 243.323 331 242C326.404 241.781 294.397 231.032 295.444 234C296.653 237.424 299 241.302 299 245C299 255.185 294.909 264.377 284.556 268.444C265.958 275.751 252.294 274.888 233.889 267C224.88 263.139 216.6 257.822 208 254C202.078 251.368 198.457 245.446 193 242.444C187.22 239.265 177 231.332 177 241.556C177 246.289 177.495 251.293 177 256C175.916 266.301 163.138 274.863 157.889 283.111C138.159 314.116 100.076 278.286 82.1111 265.111C74.2565 259.351 61 243.714 61 233.556C61 230.605 62.494 203.132 61 205C56.4462 210.692 39.6609 208 33 208C22.8103 208 17.9319 198.484 12.1111 191C1.15656 176.916 3.82838 152.593 21 143.556C26.1862 140.826 31.2486 140 37 140C38.6161 140 49.8894 141.112 45.8889 137.111C41.4787 132.701 33 126.511 33 120C33 104.532 47.3245 84.3933 61 77.5556C69.6221 73.2445 75.1627 70.9665 83.8889 67Z" fill="#F9F4EF"/>
<path d="M121 78C110.663 72.1185 96.9067 61.0828 83.8889 67C75.1627 70.9665 69.6221 73.2445 61 77.5556C47.3245 84.3933 33 104.532 33 120C33 126.511 41.4787 132.701 45.8889 137.111C49.8894 141.112 38.6161 140 37 140C31.2486 140 26.1862 140.826 21 143.556C3.82838 152.593 1.15656 176.916 12.1111 191C17.9319 198.484 22.8103 208 33 208C39.6609 208 56.4462 210.692 61 205C62.494 203.132 61 230.605 61 233.556C61 243.714 74.2565 259.351 82.1111 265.111C100.076 278.286 138.159 314.116 157.889 283.111C163.138 274.863 175.916 266.301 177 256C177.495 251.293 177 246.289 177 241.556C177 231.332 187.22 239.265 193 242.444C198.457 245.446 202.078 251.368 208 254C216.6 257.822 224.88 263.139 233.889 267C252.294 274.888 265.958 275.751 284.556 268.444C294.909 264.377 299 255.185 299 245C299 241.302 296.653 237.424 295.444 234C294.397 231.032 326.404 241.781 331 242C358.778 243.323 381.884 220.725 397.556 200.444C406.039 189.465 413.152 167.193 406.556 154C400.539 141.966 391.05 134.334 379.111 129.111C369.685 124.987 359.361 122.066 349.222 120.222C345.297 119.509 334.619 122.542 337.222 116.556C343.257 102.676 353.128 84.128 341 72C328.855 59.8552 315.261 52 298 52C283.6 52 277.459 56.6421 267 66C263.833 68.8335 257.946 75.0234 254.111 76.6667C253.058 77.1181 248.697 66.4481 248.111 65.2222C246.475 61.8023 244.357 59.8876 242.111 57C236.392 49.6471 223.084 45.2694 214.556 41.5556C203.22 36.6192 189.111 30.405 176.556 30C160.62 29.486 155.903 35.17 143.889 45C134.068 53.0356 113.167 68.9975 111 82" stroke="#211319" stroke-width="10" stroke-linecap="round" stroke-linejoin="round"/>
<path d="M279 272C279 289.054 283 305.516 283 322.444C283 336.296 283 350.148 283 364" stroke="#211319" stroke-width="10" stroke-linecap="round" stroke-linejoin="round"/>
<path d="M233 268C233 300.366 231 332.018 231 364" stroke="#211319" stroke-width="10" stroke-linecap="round" stroke-linejoin="round"/>
<path d="M131 296C120.874 320.421 115 341.753 115 368" stroke="#211319" stroke-width="10" stroke-linecap="round" stroke-linejoin="round"/>
<path d="M97 278C86.7071 302.824 81 330.918 81 358C81 367.545 86.4705 339.531 87 330C87.3134 324.359 93.7204 297.64 97 296" stroke="#211319" stroke-width="10" stroke-linecap="round" stroke-linejoin="round"/>
<path d="M127.376 142.748C126.385 143.196 125.542 142.865 124.848 141.756C124.144 140.604 123.494 138.828 122.895 136.426C121.996 132.912 121.19 129.989 120.477 127.658C119.795 125.275 119.047 123.171 118.231 121.345C114.787 124.067 111.351 126.633 107.923 129.045C104.527 131.406 102.824 132.565 102.815 132.523L106.006 145.777C106.15 146.401 105.867 146.882 105.157 147.221C104.207 147.659 103.412 147.252 102.773 145.998C102.165 144.693 101.463 142.6 100.666 139.719C99.9784 137.119 99.4266 135.298 99.0108 134.255C97.9811 135.106 97.0457 135.607 96.2047 135.757C95.9616 135.463 95.7201 134.796 95.4801 133.757C95.7839 133.555 96.1453 133.319 96.5642 133.047C97.0247 132.765 97.3349 132.497 97.4947 132.241C97.6866 131.934 97.7297 131.552 97.6241 131.094C97.1442 129.016 96.1973 125.863 94.7834 121.635C93.4239 117.833 92.4514 114.664 91.866 112.128L91.2661 109.245C91.3236 108.925 91.4259 108.704 91.573 108.583C91.7617 108.451 92.0223 108.348 92.3549 108.271C93.0616 108.108 93.4678 108.255 93.5734 108.712L101.198 130.072C102.295 129.513 104.055 128.318 106.479 126.488C108.903 124.659 112.609 121.745 117.598 117.747L114.651 103.846C114.277 102.224 114.692 101.275 115.898 100.996C116.397 100.881 116.773 100.991 117.025 101.327C117.319 101.653 117.526 102.263 117.644 103.155L120.073 113.957C120.917 117.616 122.224 122.328 123.993 128.094C124.386 129.229 124.75 130.328 125.082 131.389C125.447 132.4 125.781 133.374 126.085 134.31C126.93 136.83 127.475 138.434 127.721 139.122C128 139.758 128.326 140.318 128.7 140.801C128.684 141.68 128.243 142.329 127.376 142.748ZM149.393 137.665C146.732 138.28 144.159 138.326 141.674 137.805C139.189 137.284 137.061 136.221 135.289 134.616C133.517 133.011 132.343 130.961 131.768 128.466C131.125 125.681 131.044 122.963 131.527 120.312C132 117.619 133.066 115.315 134.726 113.399C136.417 111.432 138.614 110.136 141.317 109.513C144.144 108.86 146.496 109.28 148.373 110.774C150.241 112.225 151.45 114.333 152 117.096C152.567 119.548 152.021 121.645 150.365 123.385C148.75 125.115 146.446 126.326 143.453 127.017C142.996 127.122 142.3 127.239 141.366 127.367C139.831 127.546 138.718 127.562 138.028 127.415C137.337 127.268 136.891 126.758 136.689 125.885C136.622 125.594 136.657 125.367 136.795 125.204C136.922 124.999 137.236 124.839 137.735 124.724C138.275 124.599 139.26 124.503 140.69 124.436C142.078 124.378 143.291 124.23 144.331 123.99C148.155 123.107 149.684 121.002 148.916 117.676C148.455 115.681 147.716 114.187 146.699 113.196C145.724 112.195 144.321 111.906 142.492 112.328C140.497 112.789 138.834 113.742 137.504 115.188C136.164 116.592 135.254 118.247 134.775 120.153C134.337 122.049 134.338 123.954 134.78 125.866C135.538 129.15 137.077 131.642 139.395 133.339C141.704 134.996 144.771 135.382 148.596 134.499C149.053 134.394 149.813 134.175 150.875 133.842C151.322 133.695 151.855 133.441 152.472 133.079C153.089 132.718 153.534 132.462 153.805 132.312C155.449 131.275 156.687 130.661 157.518 130.469C158.142 130.325 158.658 130.381 159.068 130.637C158.393 132.457 157.103 133.981 155.197 135.209C153.323 136.386 151.388 137.205 149.393 137.665ZM166.82 133.708C165.864 133.928 164.774 132.713 163.549 130.062C162.314 127.37 161.378 125.024 160.742 123.025C160.105 121.027 159.133 117.857 157.824 113.518C157.619 112.821 157.388 111.911 157.128 110.788C156.802 109.375 156.68 108.374 156.764 107.786C156.888 107.187 157.221 106.826 157.761 106.701C158.219 106.596 158.596 106.618 158.893 106.768C159.223 106.867 159.539 107.101 159.843 107.469L160.357 109.977C160.971 112.638 161.676 115.124 162.473 117.437C163.311 119.739 164.482 122.819 165.985 126.675C166.721 128.345 167.281 129.726 167.664 130.82C167.882 131.383 167.912 131.989 167.756 132.638C167.59 133.245 167.278 133.602 166.82 133.708ZM157.343 99.7697C156.429 99.9808 155.661 99.7858 155.041 99.1846C154.462 98.5739 154.052 97.7488 153.812 96.7095C153.707 96.2522 153.651 95.9148 153.644 95.6974C153.449 95.0418 153.747 94.6228 154.536 94.4405C155.118 94.3061 155.734 94.3172 156.383 94.4739C157.064 94.5793 157.295 94.7232 157.074 94.9055C157.739 95.8905 158.144 96.6947 158.288 97.3183C158.413 97.8588 158.389 98.3241 158.216 98.7142C158.034 99.0628 157.743 99.4147 157.343 99.7697ZM184.482 129.499C182.528 129.95 180.67 129.678 178.908 128.684C177.188 127.68 175.708 126.204 174.471 124.256C173.274 122.299 172.412 120.178 171.884 117.891C170.963 113.9 171.017 110.341 172.046 107.213C173.117 104.076 175.378 102.109 178.829 101.312C180.907 100.832 182.802 100.789 184.513 101.182C186.256 101.524 188.592 102.254 191.522 103.374L193.402 104.122C192.878 102.798 192.201 101.29 191.373 99.5983C190.544 97.9066 189.991 96.7426 189.713 96.1062C188.257 93.0267 187.181 90.7354 186.484 89.2324C185.818 87.6782 185.342 86.2776 185.054 85.0304C184.545 82.827 184.914 81.5813 186.162 81.2934C186.849 82.1856 187.884 84.2018 189.266 87.3421C190.638 90.4409 192.455 94.7068 194.716 100.14C197.096 105.896 199.097 110.579 200.719 114.19C202.34 117.8 203.511 120.026 204.231 120.867C204.452 121.823 203.855 122.464 202.442 122.791C201.361 123.04 200.469 122.589 199.765 121.438C199.103 120.277 198.37 118.148 197.567 115.049L197.068 115.164C196.052 118.727 194.386 121.848 192.071 124.528C189.756 127.208 187.226 128.865 184.482 129.499ZM184.588 126.256C186.292 125.862 187.958 124.733 189.586 122.869C191.245 120.953 192.526 118.818 193.428 116.464C194.32 114.069 194.574 112.04 194.19 110.377L193.758 108.506C188.439 105.005 183.971 103.672 180.355 104.507C177.819 105.092 176.081 106.479 175.141 108.666C174.191 110.812 174.062 113.382 174.753 116.375L175.117 117.67C176.096 120.772 177.379 123.103 178.965 124.664C180.552 126.224 182.426 126.755 184.588 126.256ZM213.042 123.036C212.086 123.257 210.995 122.042 209.77 119.391C208.536 116.698 207.6 114.353 206.963 112.354C206.327 110.355 205.354 107.186 204.046 102.847C203.841 102.15 203.609 101.24 203.35 100.117C203.024 98.7038 202.902 97.7028 202.985 97.1144C203.11 96.5164 203.442 96.155 203.983 96.0302C204.44 95.9246 204.818 95.947 205.115 96.0972C205.444 96.1963 205.761 96.4298 206.065 96.7975L206.578 99.3063C207.193 101.967 207.898 104.453 208.695 106.765C209.533 109.068 210.703 112.147 212.207 116.004C212.943 117.673 213.502 119.055 213.886 120.149C214.104 120.711 214.134 121.317 213.977 121.967C213.811 122.574 213.499 122.931 213.042 123.036ZM203.565 89.0985C202.65 89.3097 201.883 89.1147 201.262 88.5135C200.683 87.9028 200.274 87.0777 200.034 86.0384C199.928 85.5811 199.872 85.2437 199.866 85.0262C199.671 84.3707 199.968 83.9517 200.758 83.7693C201.34 83.635 201.956 83.6461 202.605 83.8027C203.286 83.9082 203.516 84.0521 203.296 84.2344C203.961 85.2193 204.366 86.0236 204.51 86.6472C204.634 87.1876 204.61 87.653 204.438 88.0431C204.256 88.3917 203.965 88.7435 203.565 89.0985Z" fill="#211319"/>
<path d="M145.576 180.632C145.576 182.467 145.661 184.259 145.832 186.008C146.045 187.715 146.365 190.125 146.792 193.24C147.603 198.488 148.008 202.669 148.008 205.784C148.008 206.424 147.88 206.808 147.624 206.936C147.368 207.064 147.069 207.128 146.728 207.128C146.387 207.128 146.152 207.128 146.024 207.128C145.427 207.128 144.957 207.064 144.616 206.936C144.275 206.765 143.997 206.381 143.784 205.784L142.44 188.376C142.312 186.627 142.141 183.107 141.928 177.816C140.093 179.949 138.28 181.571 136.488 182.68C134.696 183.747 132.861 184.28 130.984 184.28C128.296 184.28 125.608 182.381 122.92 178.584C123.048 179.224 123.112 180.077 123.112 181.144C123.112 182.211 123.112 182.829 123.112 183L123.048 203.928C123.048 204.355 122.813 204.696 122.344 204.952C121.917 205.165 121.469 205.272 121 205.272C120.403 205.272 119.976 205.059 119.72 204.632C119.507 204.163 119.336 203.544 119.208 202.776V193.816C119.208 192.451 119.251 190.915 119.336 189.208C119.421 187.501 119.485 186.307 119.528 185.624C119.741 182.637 119.848 179.928 119.848 177.496C119.848 176.771 119.72 176.088 119.464 175.448C119.208 174.765 118.824 174.019 118.312 173.208C117.8 172.397 117.416 171.693 117.16 171.096C116.947 170.499 116.84 169.859 116.84 169.176C116.84 168.365 117.245 167.96 118.056 167.96C119.336 167.96 120.381 168.429 121.192 169.368C122.003 170.264 122.877 171.629 123.816 173.464C124.627 174.957 125.331 176.131 125.928 176.984C126.525 177.837 127.293 178.584 128.232 179.224C129.171 179.821 130.301 180.12 131.624 180.12C133.544 180.205 135.123 179.843 136.36 179.032C137.597 178.179 138.536 177.155 139.176 175.96C139.816 174.765 140.435 173.315 141.032 171.608C141.544 170.2 141.992 169.219 142.376 168.664C142.76 168.067 143.229 167.832 143.784 167.96C145.064 167.875 145.704 169.048 145.704 171.48C145.704 173.528 145.683 175.043 145.64 176.024L145.576 180.632ZM184.515 207.064C184.003 207.064 183.64 206.936 183.427 206.68C183.256 206.424 183.171 206.061 183.171 205.592C183.171 204.653 183.384 203.203 183.811 201.24C184.28 199.448 184.515 197.976 184.515 196.824C184.515 193.496 184.259 190.957 183.747 189.208H181.763C180.014 189.208 177.731 189.165 174.915 189.08L168.899 189.016H160.259L160.387 191.512C160.387 193.475 160.707 195.928 161.347 198.872C161.56 200.067 161.752 201.283 161.923 202.52C162.136 203.715 162.243 204.803 162.243 205.784V206.36C161.816 206.787 161.368 207 160.899 207C159.79 207 158.915 205.699 158.275 203.096C157.635 200.451 157.315 197.272 157.315 193.56C157.315 192.067 157.379 190.595 157.507 189.144C156.568 189.101 155.928 188.952 155.587 188.696C155.246 188.397 155.075 187.949 155.075 187.352C155.075 186.883 155.203 186.563 155.459 186.392C155.758 186.221 156.27 186.093 156.995 186.008L156.931 184.28L157.123 181.336C157.422 176.515 157.87 172.589 158.467 169.56C159.064 166.531 160.344 163.907 162.307 161.688C164.27 159.469 167.214 158.36 171.139 158.36C175.619 158.36 179.118 160.771 181.635 165.592C184.152 170.413 185.859 175.789 186.755 181.72C187.651 187.651 188.099 192.749 188.099 197.016C188.099 198.552 188.056 199.896 187.971 201.048C187.886 202.157 187.715 203.544 187.459 205.208C186.478 206.445 185.496 207.064 184.515 207.064ZM183.491 186.712C182.68 178.819 181.23 172.632 179.139 168.152C177.048 163.629 173.912 161.368 169.731 161.368C166.616 161.368 164.312 162.819 162.819 165.72C161.368 168.579 160.494 171.651 160.195 174.936C159.896 178.221 159.747 181.912 159.747 186.008L183.491 186.712ZM165.379 156.76C164.568 156.76 163.864 156.419 163.267 155.736C162.67 155.011 162.371 154.349 162.371 153.752C162.371 153.368 162.712 152.749 163.395 151.896C164.12 151.043 164.675 150.616 165.059 150.616C166.296 150.616 167.235 150.979 167.875 151.704C168.515 152.429 168.835 153.219 168.835 154.072C168.835 154.627 168.451 155.224 167.683 155.864C166.958 156.461 166.19 156.76 165.379 156.76ZM175.427 156.76C174.531 156.76 173.806 156.419 173.251 155.736C172.696 155.011 172.419 154.349 172.419 153.752C172.419 153.368 172.76 152.749 173.443 151.896C174.168 151.043 174.744 150.616 175.171 150.616C176.323 150.616 177.219 150.979 177.859 151.704C178.499 152.429 178.819 153.219 178.819 154.072C178.819 154.627 178.435 155.224 177.667 155.864C176.942 156.461 176.195 156.76 175.427 156.76ZM223.953 207.064C223.441 207.064 223.078 206.936 222.865 206.68C222.694 206.424 222.609 206.061 222.609 205.592C222.609 204.653 222.822 203.203 223.249 201.24C223.718 199.448 223.953 197.976 223.953 196.824C223.953 193.496 223.697 190.957 223.185 189.208H221.201C219.451 189.208 217.169 189.165 214.353 189.08L208.337 189.016H199.697L199.825 191.512C199.825 193.475 200.145 195.928 200.785 198.872C200.998 200.067 201.19 201.283 201.361 202.52C201.574 203.715 201.681 204.803 201.681 205.784V206.36C201.254 206.787 200.806 207 200.337 207C199.227 207 198.353 205.699 197.713 203.096C197.073 200.451 196.753 197.272 196.753 193.56C196.753 192.067 196.817 190.595 196.945 189.144C196.006 189.101 195.366 188.952 195.025 188.696C194.683 188.397 194.513 187.949 194.513 187.352C194.513 186.883 194.641 186.563 194.897 186.392C195.195 186.221 195.707 186.093 196.433 186.008L196.369 184.28L196.561 181.336C196.859 176.515 197.307 172.589 197.905 169.56C198.502 166.531 199.782 163.907 201.745 161.688C203.707 159.469 206.651 158.36 210.577 158.36C215.057 158.36 218.555 160.771 221.073 165.592C223.59 170.413 225.297 175.789 226.193 181.72C227.089 187.651 227.537 192.749 227.537 197.016C227.537 198.552 227.494 199.896 227.409 201.048C227.323 202.157 227.153 203.544 226.897 205.208C225.915 206.445 224.934 207.064 223.953 207.064ZM222.929 186.712C222.118 178.819 220.667 172.632 218.577 168.152C216.486 163.629 213.35 161.368 209.169 161.368C206.054 161.368 203.75 162.819 202.257 165.72C200.806 168.579 199.931 171.651 199.633 174.936C199.334 178.221 199.185 181.912 199.185 186.008L222.929 186.712ZM204.817 156.76C204.006 156.76 203.302 156.419 202.705 155.736C202.107 155.011 201.809 154.349 201.809 153.752C201.809 153.368 202.15 152.749 202.833 151.896C203.558 151.043 204.113 150.616 204.497 150.616C205.734 150.616 206.673 150.979 207.312 151.704C207.953 152.429 208.273 153.219 208.273 154.072C208.273 154.627 207.889 155.224 207.121 155.864C206.395 156.461 205.627 156.76 204.817 156.76ZM214.865 156.76C213.969 156.76 213.243 156.419 212.689 155.736C212.134 155.011 211.857 154.349 211.857 153.752C211.857 153.368 212.198 152.749 212.881 151.896C213.606 151.043 214.182 150.616 214.609 150.616C215.761 150.616 216.657 150.979 217.297 151.704C217.937 152.429 218.257 153.219 218.257 154.072C218.257 154.627 217.873 155.224 217.105 155.864C216.379 156.461 215.633 156.76 214.865 156.76Z" fill="#211319"/>
<path d="M299.536 35.0056C292.132 38.49 290.022 53.1759 289.616 61.4937C289.853 62.6595 290.584 75.0461 291.425 79.6723C292.904 87.806 293.536 95.1597 293.536 103.561C293.536 110.371 292.209 117.72 287.98 123.006C285.265 126.4 279.789 136.015 279.536 140.561C279.174 147.07 278.482 155.265 279.647 161.672C280.072 164.006 281.269 172.339 284.536 172.339C287.105 172.339 289.882 166.014 292.425 164.561C296.844 162.036 301.194 154.488 303.98 151.006C307.488 146.622 311.584 142.501 315.092 138.117C320.516 131.337 327.162 109.157 339.647 119.561C350.98 129.005 362.845 137.87 373.536 148.561C380.032 155.057 386.701 162.021 394.647 166.561C398.818 168.944 402.683 168.453 406.536 171.45C409.677 173.893 413.519 176.561 417.536 176.561C425.4 176.561 432.404 180.561 440.536 180.561C449.019 180.561 457.475 178.561 465.536 178.561C482.167 178.561 495.536 172.691 495.536 154.561C495.536 146.627 494.749 140.791 491.536 133.561C489.142 128.176 482.427 124.509 479.536 119.45C471.705 105.746 456.376 92.0389 445.536 80.5612C434.608 68.9907 424.03 56.8326 412.758 45.5612C408.926 41.729 404.724 31.5002 401.98 26.5612C397.475 18.451 389.737 14.2174 381.536 10.1167C376.131 7.41428 367.654 2.4671 362.536 6.56117C357.78 10.3657 347.772 16.9705 345.536 22.5612C343.956 26.5112 341.683 30.4495 341.536 35.0056C341.301 42.2824 345.003 52.8074 335.98 46.5612C330.625 42.8535 321.999 28.525 313.536 33.0056C310.351 34.692 308.449 39.2661 303.98 39.6723C300.985 39.9446 302.497 33.6121 299.536 35.0056Z" fill="#211319"/>
<path d="M289.536 64.5612C289.536 57.5016 291.097 38.9771 299.536 35.0056C302.497 33.6121 300.985 39.9446 303.98 39.6723C308.449 39.2661 310.351 34.692 313.536 33.0056C321.999 28.525 330.625 42.8535 335.98 46.5612C345.003 52.8074 341.301 42.2824 341.536 35.0056C341.683 30.4495 343.956 26.5112 345.536 22.5612C347.772 16.9705 357.78 10.3657 362.536 6.56117C367.654 2.4671 376.131 7.41428 381.536 10.1167C389.737 14.2174 397.475 18.451 401.98 26.5612C404.724 31.5002 408.926 41.729 412.758 45.5612C424.03 56.8326 434.608 68.9907 445.536 80.5612C456.376 92.0389 471.705 105.746 479.536 119.45C482.427 124.509 489.142 128.176 491.536 133.561C494.749 140.791 495.536 146.627 495.536 154.561C495.536 172.691 482.167 178.561 465.536 178.561C457.475 178.561 449.019 180.561 440.536 180.561C432.404 180.561 425.4 176.561 417.536 176.561C413.519 176.561 409.677 173.893 406.536 171.45C402.683 168.453 398.818 168.944 394.647 166.561C386.701 162.021 380.032 155.057 373.536 148.561C362.845 137.87 350.98 129.005 339.647 119.561C327.162 109.157 320.516 131.337 315.092 138.117C311.584 142.501 307.488 146.622 303.98 151.006C301.194 154.488 296.844 162.036 292.425 164.561C289.882 166.014 287.105 172.339 284.536 172.339C281.269 172.339 280.072 164.006 279.647 161.672C278.482 155.265 279.174 147.07 279.536 140.561C279.789 136.015 285.265 126.4 287.98 123.006C292.209 117.72 293.536 110.371 293.536 103.561C293.536 95.1597 292.904 87.806 291.425 79.6723C290.398 74.0265 289.536 56.8228 289.536 62.5612" stroke="#211319" stroke-width="10" stroke-linecap="round" stroke-linejoin="round"/>
<circle cx="387" cy="78" r="15" fill="#F9F4EF"/>
<circle cx="386.5" cy="78.5" r="7.5" fill="#211319"/>
</svg>
